<svg width="36" height="36" viewBox="0 0 36 36" fill="none" xmlns="http://www.w3.org/2000/svg">
<path d="M13.0343 26.9272C13.0343 27.0481 12.8952 27.1449 12.7198 27.1449C12.5202 27.1631 12.381 27.0663 12.381 26.9272C12.381 26.8062 12.5202 26.7094 12.6956 26.7094C12.877 26.6913 13.0343 26.7881 13.0343 26.9272ZM11.1532 26.655C11.1109 26.776 11.2319 26.9151 11.4133 26.9514C11.5706 27.0119 11.752 26.9514 11.7883 26.8304C11.8246 26.7094 11.7097 26.5703 11.5282 26.5159C11.371 26.4735 11.1956 26.534 11.1532 26.655ZM13.8266 26.5522C13.6512 26.5945 13.5302 26.7094 13.5484 26.8485C13.5665 26.9695 13.7238 27.0481 13.9052 27.0058C14.0806 26.9635 14.2016 26.8485 14.1835 26.7276C14.1653 26.6127 14.002 26.534 13.8266 26.5522ZM17.8065 3.37476C9.41734 3.37476 3 9.74371 3 18.1328C3 24.8405 7.22177 30.5804 13.252 32.6006C14.0262 32.7397 14.2984 32.2619 14.2984 31.8687C14.2984 31.4937 14.2802 29.4252 14.2802 28.155C14.2802 28.155 10.0464 29.0623 9.15726 26.3526C9.15726 26.3526 8.46774 24.5925 7.47581 24.1389C7.47581 24.1389 6.09073 23.1893 7.57258 23.2074C7.57258 23.2074 9.07863 23.3284 9.90726 24.7679C11.2319 27.1026 13.4516 26.4312 14.3165 26.032C14.4556 25.0643 14.8488 24.3929 15.2843 23.9937C11.9032 23.6187 8.49194 23.1288 8.49194 17.3102C8.49194 15.6469 8.95161 14.8123 9.91935 13.7477C9.7621 13.3546 9.24798 11.7336 10.0766 9.64088C11.3407 9.24774 14.25 11.2739 14.25 11.2739C15.4597 10.9352 16.7601 10.7598 18.0484 10.7598C19.3367 10.7598 20.6371 10.9352 21.8468 11.2739C21.8468 11.2739 24.756 9.24169 26.0202 9.64088C26.8488 11.7397 26.3347 13.3546 26.1774 13.7477C27.1452 14.8183 27.7379 15.653 27.7379 17.3102C27.7379 23.1469 24.1754 23.6127 20.7944 23.9937C21.3508 24.4715 21.8226 25.3788 21.8226 26.8002C21.8226 28.8385 21.8044 31.3606 21.8044 31.8566C21.8044 32.2498 22.0827 32.7276 22.8508 32.5885C28.8992 30.5804 33 24.8405 33 18.1328C33 9.74371 26.1956 3.37476 17.8065 3.37476ZM8.87903 24.2356C8.8004 24.2961 8.81855 24.4352 8.92137 24.5502C9.01815 24.6469 9.15726 24.6893 9.23589 24.6106C9.31452 24.5502 9.29637 24.411 9.19355 24.2961C9.09677 24.1994 8.95766 24.157 8.87903 24.2356ZM8.22581 23.7457C8.18347 23.8244 8.24395 23.9211 8.36492 23.9816C8.46169 24.0421 8.58266 24.0239 8.625 23.9393C8.66734 23.8606 8.60685 23.7639 8.48589 23.7034C8.36492 23.6671 8.26815 23.6852 8.22581 23.7457ZM10.1855 25.8989C10.0887 25.9776 10.125 26.159 10.2641 26.2739C10.4032 26.4131 10.5786 26.4312 10.6573 26.3344C10.7359 26.2558 10.6996 26.0744 10.5786 25.9594C10.4456 25.8203 10.2641 25.8022 10.1855 25.8989ZM9.49597 25.0098C9.39919 25.0703 9.39919 25.2276 9.49597 25.3667C9.59274 25.5058 9.75605 25.5663 9.83468 25.5058C9.93145 25.4272 9.93145 25.2699 9.83468 25.1308C9.75 24.9917 9.59274 24.9312 9.49597 25.0098Z" fill="black"/>
</svg>
