<?xml version="1.0" encoding="utf-8"?>
<!-- Generator: Adobe Illustrator 25.3.1, SVG Export Plug-In . SVG Version: 6.00 Build 0)  -->
<svg version="1.1" id="Layer_1" xmlns="http://www.w3.org/2000/svg" xmlns:xlink="http://www.w3.org/1999/xlink" x="0px" y="0px"
	 viewBox="0 0 669.3 669.3" style="enable-background:new 0 0 669.3 669.3;" xml:space="preserve">
<style type="text/css">
	.st0{fill:#3F54D1;}
	.st1{fill:#20C9D4;}
	.st2{fill:#4FE0B5;}
	.st3{fill:#15CDCB;}
	.st4{fill:#5280E2;}
	.st5{opacity:0.68;fill:#4FE0B5;}
	.st6{fill:#5298E2;}
	.st7{opacity:0.79;fill:#5280E2;}
	.st8{opacity:0.8;fill:#3F54D1;}
	.st9{fill:url(#SVGID_1_);}
	.st10{fill:#FFFFFF;}
	.st11{fill:url(#SVGID_2_);}
	.st12{fill:url(#SVGID_3_);}
	.st13{fill:url(#SVGID_4_);}
	.st14{fill:url(#SVGID_5_);}
</style>
<polygon class="st0" points="4611.6,-861.9 4528.6,-944.9 4451.2,-867.5 4373.7,-944.9 4290.7,-861.9 4373.7,-778.9 4373.7,-778.9 
	4451.2,-701.5 4528.6,-778.9 4528.6,-778.9 "/>
<polygon class="st1" points="4767.1,-871.8 4684.1,-954.8 4606.7,-877.3 4529.3,-954.8 4446.2,-871.8 4529.3,-788.7 4529.3,-788.7 
	4606.7,-711.3 4684.1,-788.7 4684.1,-788.7 "/>
<rect x="3817.7" y="-869.5" class="st2" width="117.4" height="117.4"/>
<rect x="3972.5" y="-869.5" class="st3" width="117.4" height="117.4"/>
<rect x="3662.8" y="-869.5" class="st4" width="117.4" height="117.4"/>
<rect x="3508" y="-869.5" class="st0" width="117.4" height="117.4"/>
<image style="overflow:visible;" width="564" height="564" xlink:href="../../../Downloads/IMG_0263.JPG"  transform="matrix(1 0 0 1 3421.4348 -197.9138)">
</image>
<circle class="st5" cx="5742.6" cy="750.5" r="44"/>
<g>
	<circle class="st1" cx="-274.4" cy="-453.6" r="44"/>
	<circle class="st4" cx="-463.9" cy="-544.8" r="137.4"/>
	<circle class="st5" cx="-367.8" cy="-648.7" r="137.4"/>
</g>
<rect x="4471.2" y="-930.5" transform="matrix(0.7071 -0.7071 0.7071 0.7071 1943.191 2947.7661)" class="st6" width="117.4" height="117.4"/>
<circle class="st5" cx="5415.3" cy="466.5" r="137.4"/>
<path class="st7" d="M222.1-751.1c1.8-15.7,10.6-33,17.3-51.7c-28.9,22.7-56.3,39.8-85.2,62.5c-23.6,18.6-40.1,35.7-53.8,53.7
	c-15.8,17.8-25,39.5-25,62.9c0.2,60.2,61.6,108.7,137.4,108.7c75.9,0,137.4-48.8,137.4-109c0-52.4-46.7-96.2-109-106.6
	C229.3-732.7,221-741.4,222.1-751.1z"/>
<path class="st5" d="M379.1-500.6c-1.8,15.7-10.6,33-17.3,51.7c28.9-22.7,47.3-39.1,76.1-61.8c23.6-18.6,49.2-36.4,62.8-54.4
	c15.8-17.8,25-39.5,25-62.9c-0.2-60.2-61.6-108.7-137.4-108.7c-75.9,0-137.4,48.8-137.4,109c0,52.4,46.7,96.2,109,106.6
	C371.9-519.1,380.2-510.3,379.1-500.6z"/>
<path class="st8" d="M248.8-627.5c0,34.8,20.6,65.7,52.5,85.7c28.8-20,47-49.3,47-82c0-34.8-20.6-65.7-52.5-85.7
	C267-689.6,248.8-660.2,248.8-627.5z"/>
<linearGradient id="SVGID_1_" gradientUnits="userSpaceOnUse" x1="1557.9402" y1="-622.0612" x2="1909.0641" y2="-622.0612">
	<stop  offset="0" style="stop-color:#5280E2"/>
	<stop  offset="0.2629" style="stop-color:#5284E0;stop-opacity:0.9872"/>
	<stop  offset="1" style="stop-color:#4FE0B5;stop-opacity:0.68"/>
</linearGradient>
<path class="st9" d="M1862.7-679.4h-71.9v-71.9c0-25.6-20.7-46.3-46.3-46.3h-22.1c-25.6,0-46.3,20.7-46.3,46.3v71.9h-71.9
	c-25.6,0-46.3,20.7-46.3,46.3v22.1c0,25.6,20.7,46.3,46.3,46.3h71.9v71.9c0,25.6,20.7,46.3,46.3,46.3h22.1
	c25.6,0,46.3-20.7,46.3-46.3v-71.9h71.9c25.6,0,46.3-20.7,46.3-46.3v-22.1C1909.1-658.7,1888.3-679.4,1862.7-679.4z"/>
<g>
	<path class="st2" d="M3892.8,705h-70.1v111.9h70.1c25,0,45.2-20.2,45.2-45.2v-21.5C3938,725.2,3917.8,705,3892.8,705z"/>
	<path class="st2" d="M3640.7,705c-25,0-45.2,20.2-45.2,45.2v21.5c0,25,20.2,45.2,45.2,45.2h70.1V705H3640.7z"/>
	<path class="st2" d="M3710.8,887c0,25,20.2,45.2,45.2,45.2h21.5c25,0,45.2-20.2,45.2-45.2v-70.1h-111.9V887z"/>
	<path class="st2" d="M3822.7,634.9c0-25-20.2-45.2-45.2-45.2H3756c-25,0-45.2,20.2-45.2,45.2V705h111.9V634.9z"/>
</g>
<path class="st10" d="M4442.9,1296.2h-32.1H4388c-11.2,0-20.3,9.1-20.3,20.3v41.8c0,13.2,10.7,24,24,24h19.1l0,0h43.1v-10.9v-64.3
	v-10.9H4442.9z"/>
<path class="st2" d="M4419.2,1501.4L4419.2,1501.4c-71,0-128.5-57.5-128.5-128.5v0c0-71,57.5-128.5,128.5-128.5h0
	c71,0,128.5,57.5,128.5,128.5v0C4547.7,1443.9,4490.2,1501.4,4419.2,1501.4z"/>
<polyline class="st10" points="4424.6,1349.7 4584.8,1263.6 4584.8,1461 4424.6,1397.4 4424.6,1362.3 "/>
<path class="st10" d="M4416.8,1447.7L4416.8,1447.7c-27.1,0-49.1-22-49.1-49.1l56.9-26.6l-56.9-26.6c0-27.1,22-49.1,49.1-49.1l0,0
	c27.1,0,49.1,22,49.1,49.1v53.3C4465.9,1425.7,4443.9,1447.7,4416.8,1447.7z"/>
<linearGradient id="SVGID_2_" gradientUnits="userSpaceOnUse" x1="3721.2866" y1="1700.2863" x2="4031.4778" y2="1700.2863">
	<stop  offset="0" style="stop-color:#5280E2"/>
	<stop  offset="0.2629" style="stop-color:#5284E0;stop-opacity:0.9872"/>
	<stop  offset="1" style="stop-color:#4FE0B5;stop-opacity:0.68"/>
</linearGradient>
<path class="st11" d="M3948.3,1753.2c-13.2,23.9-35.2,39.6-60.1,39.6c-40.4,0-73.2-41.4-73.2-92.5s32.8-92.5,73.2-92.5
	c23.3,0,44.1,13.8,57.5,35.3l77.1-41.5c-30.4-41.4-79.4-68.2-134.7-68.2h0c-92.2,0-167,74.8-167,167v0c0,92.2,74.8,167,167,167h0
	c60.8,0,114-32.5,143.2-81.1L3948.3,1753.2z"/>
<path class="st2" d="M3486.2,1161.6L3486.2,1161.6c-92.2,0-167-74.8-167-167v0c0-92.2,74.8-167,167-167h0c92.2,0,167,74.8,167,167v0
	C3653.2,1086.8,3578.4,1161.6,3486.2,1161.6z"/>
<linearGradient id="SVGID_3_" gradientUnits="userSpaceOnUse" x1="5579.6826" y1="750.456" x2="5844.4175" y2="750.456">
	<stop  offset="0" style="stop-color:#5280E2"/>
	<stop  offset="0.2629" style="stop-color:#5284E0;stop-opacity:0.9872"/>
	<stop  offset="1" style="stop-color:#4FE0B5;stop-opacity:0.68"/>
</linearGradient>
<path class="st12" d="M5807.2,790c-14.4,28.2-43.7,47.5-77.5,47.5c-48,0-87-38.9-87-87c0-48,38.9-87,87-87
	c31.1,0,58.3,16.3,73.7,40.8l36.2-16.3c-22.8-44.5-69-74.9-122.4-74.9c-75.9,0-137.4,61.5-137.4,137.4s61.5,137.4,137.4,137.4
	c57.5,0,106.8-35.4,127.3-85.5L5807.2,790z"/>
<circle class="st5" cx="4353.6" cy="368.7" r="44"/>
<polyline class="st10" points="5298.7,896.2 5458.9,810 5458.9,1007.4 5298.7,943.8 5298.7,908.7 "/>
<circle class="st5" cx="4450.8" cy="978.2" r="44"/>
<g>
	<linearGradient id="SVGID_4_" gradientUnits="userSpaceOnUse" x1="148.6632" y1="334.6613" x2="492.2353" y2="334.6613">
		<stop  offset="0" style="stop-color:#5280E2"/>
		<stop  offset="0.2629" style="stop-color:#5284E0;stop-opacity:0.9872"/>
		<stop  offset="1" style="stop-color:#4FE0B5;stop-opacity:0.68"/>
	</linearGradient>
	<path class="st13" d="M320.4,162.9c-94.9,0-171.8,76.9-171.8,171.8s76.9,171.8,171.8,171.8s171.8-76.9,171.8-171.8
		S415.3,162.9,320.4,162.9z M336.1,443.4c-60,0-108.7-48.7-108.7-108.7c0-60,48.7-108.7,108.7-108.7c60,0,108.7,48.7,108.7,108.7
		C444.8,394.7,396.1,443.4,336.1,443.4z"/>
	<polygon class="st10" points="320.4,307.7 320.4,323.3 320.4,324.2 320.4,334.3 320.4,335.1 320.4,350.8 520.7,458.4 520.7,334.3 
		520.7,324.2 520.7,200 	"/>
	<circle class="st5" cx="453.2" cy="334" r="39.1"/>
</g>
<circle class="st5" cx="1856.5" cy="-497.2" r="25.8"/>
<linearGradient id="SVGID_5_" gradientUnits="userSpaceOnUse" x1="4980.6304" y1="1527.1135" x2="5255.5156" y2="1527.1135">
	<stop  offset="0" style="stop-color:#5280E2"/>
	<stop  offset="0.2629" style="stop-color:#5284E0;stop-opacity:0.9872"/>
	<stop  offset="1" style="stop-color:#4FE0B5;stop-opacity:0.68"/>
</linearGradient>
<path class="st14" d="M5118.1,1389.7c-75.9,0-137.4,61.5-137.4,137.4c0,75.9,61.5,137.4,137.4,137.4c75.9,0,137.4-61.5,137.4-137.4
	C5255.5,1451.2,5194,1389.7,5118.1,1389.7z M5130.6,1614.1c-48,0-87-38.9-87-87s38.9-87,87-87s87,38.9,87,87
	S5178.6,1614.1,5130.6,1614.1z"/>
<polygon class="st10" points="5118.1,1500.8 5118.1,1517 5118.1,1517.8 5118.1,1528.3 5118.1,1529.1 5118.1,1545.3 5278.3,1656.4 
	5278.3,1528.3 5278.3,1517.8 5278.3,1389.7 "/>
<circle class="st5" cx="5224.2" cy="1522.8" r="31.3"/>
<path class="st10" d="M1678.7-564.7h-2.5v-114.7h114.7v2.5C1790.9-614.9,1740.6-564.7,1678.7-564.7z"/>
<circle class="st0" cx="2543.3" cy="-622.1" r="141.7"/>
<circle class="st4" cx="2735.6" cy="-622.1" r="141.7"/>
<circle class="st3" cx="2898.5" cy="-622.1" r="141.7"/>
<circle class="st2" cx="3090.8" cy="-622.1" r="141.7"/>
<rect x="2259.6" y="-910.4" style="fill:none;" width="490.4" height="139.2"/>
<text transform="matrix(1 0 0 1 2259.552 -858.1118)" style="font-family:'HoeflerText-Regular'; font-size:72px;">color codes</text>
<rect x="-709.1" y="-910.4" style="fill:none;" width="490.4" height="139.2"/>
<text transform="matrix(1 0 0 1 -709.1121 -859.2642)" style="font-family:'MyriadPro-Regular'; font-size:72px;">logo 1</text>
<rect x="-4.8" y="-910.4" style="fill:none;" width="490.4" height="139.2"/>
<text transform="matrix(1 0 0 1 -4.7559 -859.2642)" style="font-family:'MyriadPro-Regular'; font-size:72px;">logo 2</text>
<rect x="714.4" y="-910.4" style="fill:none;" width="490.4" height="139.2"/>
<text transform="matrix(1 0 0 1 714.3573 -859.2642)" style="font-family:'MyriadPro-Regular'; font-size:72px;">logo 3</text>
<rect x="1418.7" y="-910.4" style="fill:none;" width="490.4" height="139.2"/>
<text transform="matrix(1 0 0 1 1418.7135 -859.2642)" style="font-family:'MyriadPro-Regular'; font-size:72px;">logo 4</text>
<rect x="2449.7" y="-412.6" style="fill:none;" width="159.5" height="76.1"/>
<text transform="matrix(1 0 0 1 2449.6851 -380.6965)" style="font-family:'MyriadPro-Regular'; font-size:45px;">3F54D1</text>
<rect x="2640.9" y="-412.6" style="fill:none;" width="159.5" height="76.1"/>
<text transform="matrix(1 0 0 1 2640.9075 -380.6965)" style="font-family:'MyriadPro-Regular'; font-size:45px;">5280E2</text>
<rect x="2830.8" y="-412.6" style="fill:none;" width="159.5" height="76.1"/>
<text transform="matrix(1 0 0 1 2830.7512 -380.6965)" style="font-family:'MyriadPro-Regular'; font-size:45px;">15CDCB</text>
<rect x="3020.6" y="-412.6" style="fill:none;" width="159.5" height="76.1"/>
<text transform="matrix(1 0 0 1 3020.5952 -380.6965)" style="font-family:'MyriadPro-Regular'; font-size:45px;">4FE0B5</text>
</svg>
